<svg xmlns="http://www.w3.org/2000/svg" viewBox="0 0 2111 1662" width="2111" height="1662" font-family="Helvetica, Arial, sans-serif">
<rect width="100%" height="100%" fill="#ffffff"/>
<g transform="translate(-8 -8)">
<defs>
    <marker id="m_arrow_end" viewBox="0 0 10 10" refX="9" refY="5" markerWidth="8" markerHeight="8" orient="auto"><path d="M0,0 L10,5 L0,10 z" fill="#000"/></marker>
    <marker id="m_arrow_start" viewBox="0 0 10 10" refX="1" refY="5" markerWidth="8" markerHeight="8" orient="auto-start-reverse"><path d="M0,0 L10,5 L0,10 z" fill="#000"/></marker>
    <marker id="m_triangle_end" viewBox="0 0 10 10" refX="9" refY="5" markerWidth="9" markerHeight="9" orient="auto"><path d="M0,0 L10,5 L0,10 z" fill="#000"/></marker>
    <marker id="m_triangle_start" viewBox="0 0 10 10" refX="1" refY="5" markerWidth="9" markerHeight="9" orient="auto-start-reverse"><path d="M0,0 L10,5 L0,10 z" fill="#000"/></marker>
    <marker id="m_triangle_outline_end" viewBox="0 0 10 10" refX="9" refY="5" markerWidth="10" markerHeight="10" orient="auto"><path d="M0,0 L10,5 L0,10 z" fill="#fff" stroke="#000"/></marker>
    <marker id="m_triangle_outline_start" viewBox="0 0 10 10" refX="1" refY="5" markerWidth="10" markerHeight="10" orient="auto-start-reverse"><path d="M0,0 L10,5 L0,10 z" fill="#fff" stroke="#000"/></marker>
    <marker id="m_diamond_end" viewBox="0 0 12 10" refX="11" refY="5" markerWidth="10" markerHeight="8" orient="auto"><path d="M0,5 L6,0 L12,5 L6,10 z" fill="#000"/></marker>
    <marker id="m_diamond_start" viewBox="0 0 12 10" refX="1" refY="5" markerWidth="10" markerHeight="8" orient="auto-start-reverse"><path d="M0,5 L6,0 L12,5 L6,10 z" fill="#000"/></marker>
    <marker id="m_diamond_outline_end" viewBox="0 0 12 10" refX="11" refY="5" markerWidth="10" markerHeight="8" orient="auto"><path d="M0,5 L6,0 L12,5 L6,10 z" fill="#fff" stroke="#000"/></marker>
    <marker id="m_diamond_outline_start" viewBox="0 0 12 10" refX="1" refY="5" markerWidth="10" markerHeight="8" orient="auto-start-reverse"><path d="M0,5 L6,0 L12,5 L6,10 z" fill="#fff" stroke="#000"/></marker>
  </defs>
<rect x="1097.6" y="1236" width="534" height="285" rx="6" ry="6" fill="#f2e7f8" stroke="#6d2395" stroke-width="2"/>
<rect x="1119.6" y="1244" width="120" height="38" rx="6" ry="6" fill="#e1c9ed" stroke="#6d2395" stroke-width="2"/>
<text x="1133.6" y="1271.25" fill="#6d2395" font-size="22" text-anchor="start"><tspan x="1133.6" dy="0">layout</tspan></text>
<rect x="1119.6" y="1304" width="220" height="78" rx="6" ry="6" fill="#ffffff" stroke="#6d2395" stroke-width="2"/>
<text x="1229.6" y="1334" fill="#6d2395" font-size="18" text-anchor="middle"><tspan x="1229.6" dy="0">elk_layout</tspan></text>
<rect x="1389.6" y="1313" width="220" height="60" rx="6" ry="6" fill="#ffffff" stroke="#6d2395" stroke-width="2"/>
<text x="1499.6" y="1343" fill="#6d2395" font-size="18" text-anchor="middle"><tspan x="1499.6" dy="0">sequence_layout</tspan></text>
<rect x="1389.6" y="1397" width="220" height="96" rx="6" ry="6" fill="#ffffff" stroke="#6d2395" stroke-width="2"/>
<text x="1499.6" y="1427" fill="#6d2395" font-size="18" text-anchor="middle"><tspan x="1499.6" dy="0">sizing</tspan></text>
<rect x="1819" y="1003" width="264" height="208" rx="6" ry="6" fill="#e7f8f3" stroke="#239573" stroke-width="2"/>
<rect x="1841" y="1011" width="120" height="38" rx="6" ry="6" fill="#c9ede2" stroke="#239573" stroke-width="2"/>
<text x="1855" y="1038.25" fill="#239573" font-size="22" text-anchor="start"><tspan x="1855" dy="0">model</tspan></text>
<rect x="1841" y="1069" width="220" height="114" rx="6" ry="6" fill="#ffffff" stroke="#239573" stroke-width="2"/>
<text x="1951" y="1099" fill="#239573" font-size="18" text-anchor="middle"><tspan x="1951" dy="0">diagram</tspan></text>
<rect x="623" y="45" width="1126" height="1161" rx="6" ry="6" fill="#e7ebf8" stroke="#233d95" stroke-width="2"/>
<rect x="645" y="53" width="120" height="38" rx="6" ry="6" fill="#c9d2ed" stroke="#233d95" stroke-width="2"/>
<text x="659" y="80.25" fill="#233d95" font-size="22" text-anchor="start"><tspan x="659" dy="0">parser</tspan></text>
<rect x="1064" y="1100" width="284" height="78" rx="6" ry="6" fill="#ffffff" stroke="#233d95" stroke-width="2"/>
<text x="1206" y="1130" fill="#233d95" font-size="18" text-anchor="middle"><tspan x="1206" dy="0">component_context</tspan></text>
<rect x="1064" y="111" width="284" height="60" rx="6" ry="6" fill="#ffffff" stroke="#233d95" stroke-width="2"/>
<text x="1206" y="141" fill="#233d95" font-size="18" text-anchor="middle"><tspan x="1206" dy="0">engine</tspan></text>
<rect x="645" y="122.57142857142857" width="284" height="258" rx="6" ry="6" fill="#ffffff" stroke="#233d95" stroke-width="2"/>
<text x="787" y="152.57142857142856" fill="#233d95" font-size="18" text-anchor="middle"><tspan x="787" dy="0">plantuml</tspan></text>
<rect x="1064" y="1016" width="284" height="60" rx="6" ry="6" fill="#ffffff" stroke="#233d95" stroke-width="2"/>
<text x="1206" y="1046" fill="#233d95" font-size="18" text-anchor="middle"><tspan x="1206" dy="0">sequence_context</tspan></text>
<rect x="1443" y="210.5" width="284" height="222" rx="6" ry="6" fill="#ffffff" stroke="#233d95" stroke-width="2"/>
<text x="1585" y="240.5" fill="#233d95" font-size="18" text-anchor="middle"><tspan x="1585" dy="0">utils</tspan></text>
<rect x="1064" y="192" width="284" height="426" rx="6" ry="6" fill="#d7def3" stroke="#233d95" stroke-width="2"/>
<text x="1080" y="215.2" fill="#233d95" font-size="16" text-anchor="start"><tspan x="1080" dy="0">plugins/component</tspan></text>
<rect x="1080" y="236" width="252" height="60" rx="6" ry="6" fill="#ffffff" stroke="#233d95" stroke-width="2"/>
<text x="1206" y="266" fill="#233d95" font-size="18" text-anchor="middle"><tspan x="1206" dy="0">connections</tspan></text>
<rect x="1080" y="312" width="252" height="60" rx="6" ry="6" fill="#ffffff" stroke="#233d95" stroke-width="2"/>
<text x="1206" y="342" fill="#233d95" font-size="18" text-anchor="middle"><tspan x="1206" dy="0">containers</tspan></text>
<rect x="1080" y="388" width="252" height="60" rx="6" ry="6" fill="#ffffff" stroke="#233d95" stroke-width="2"/>
<text x="1206" y="418" fill="#233d95" font-size="18" text-anchor="middle"><tspan x="1206" dy="0">notes</tspan></text>
<rect x="1080" y="464" width="252" height="60" rx="6" ry="6" fill="#ffffff" stroke="#233d95" stroke-width="2"/>
<text x="1206" y="494" fill="#233d95" font-size="18" text-anchor="middle"><tspan x="1206" dy="0">preamble</tspan></text>
<rect x="1080" y="540" width="252" height="60" rx="6" ry="6" fill="#ffffff" stroke="#233d95" stroke-width="2"/>
<text x="1206" y="570" fill="#233d95" font-size="18" text-anchor="middle"><tspan x="1206" dy="0">shapes</tspan></text>
<rect x="1064" y="642" width="284" height="350" rx="6" ry="6" fill="#d7def3" stroke="#233d95" stroke-width="2"/>
<text x="1080" y="665.2" fill="#233d95" font-size="16" text-anchor="start"><tspan x="1080" dy="0">plugins/sequence</tspan></text>
<rect x="1080" y="762" width="252" height="60" rx="6" ry="6" fill="#ffffff" stroke="#233d95" stroke-width="2"/>
<text x="1206" y="792" fill="#233d95" font-size="18" text-anchor="middle"><tspan x="1206" dy="0">messages</tspan></text>
<rect x="1080" y="838" width="252" height="60" rx="6" ry="6" fill="#ffffff" stroke="#233d95" stroke-width="2"/>
<text x="1206" y="868" fill="#233d95" font-size="18" text-anchor="middle"><tspan x="1206" dy="0">notes</tspan></text>
<rect x="1080" y="914" width="252" height="60" rx="6" ry="6" fill="#ffffff" stroke="#233d95" stroke-width="2"/>
<text x="1206" y="944" fill="#233d95" font-size="18" text-anchor="middle"><tspan x="1206" dy="0">participants</tspan></text>
<rect x="1080" y="686" width="252" height="60" rx="6" ry="6" fill="#ffffff" stroke="#233d95" stroke-width="2"/>
<text x="1206" y="716" fill="#233d95" font-size="18" text-anchor="middle"><tspan x="1206" dy="0">preamble</tspan></text>
<rect x="24" y="1366" width="534" height="288" rx="6" ry="6" fill="#f2e7f8" stroke="#692395" stroke-width="2"/>
<rect x="46" y="1374" width="120" height="38" rx="6" ry="6" fill="#dfc9ed" stroke="#692395" stroke-width="2"/>
<text x="60" y="1401.25" fill="#692395" font-size="22" text-anchor="start"><tspan x="60" dy="0">render</tspan></text>
<rect x="46" y="1432" width="220" height="114" rx="6" ry="6" fill="#ffffff" stroke="#692395" stroke-width="2"/>
<text x="156" y="1462" fill="#692395" font-size="18" text-anchor="middle"><tspan x="156" dy="0">excalidraw</tspan></text>
<rect x="316" y="1500" width="220" height="60" rx="6" ry="6" fill="#ffffff" stroke="#692395" stroke-width="2"/>
<text x="426" y="1530" fill="#692395" font-size="18" text-anchor="middle"><tspan x="426" dy="0">sequence_render</tspan></text>
<rect x="46" y="1570" width="220" height="56" rx="6" ry="6" fill="#ffffff" stroke="#692395" stroke-width="2"/>
<text x="156" y="1600" fill="#692395" font-size="18" text-anchor="middle"><tspan x="156" dy="0">svg</tspan></text>
<rect x="1819" y="1343" width="284" height="274" rx="6" ry="6" fill="#eaf8e7" stroke="#369523" stroke-width="2"/>
<rect x="1841" y="1351" width="120" height="38" rx="6" ry="6" fill="#cfedc9" stroke="#369523" stroke-width="2"/>
<text x="1855" y="1378.25" fill="#369523" font-size="22" text-anchor="start"><tspan x="1855" dy="0">style</tspan></text>
<rect x="1861" y="1409" width="220" height="60" rx="6" ry="6" fill="#ffffff" stroke="#369523" stroke-width="2"/>
<text x="1971" y="1439" fill="#369523" font-size="18" text-anchor="middle"><tspan x="1971" dy="0">colors</tspan></text>
<rect x="1861" y="1493" width="220" height="96" rx="6" ry="6" fill="#ffffff" stroke="#369523" stroke-width="2"/>
<text x="1971" y="1523" fill="#369523" font-size="18" text-anchor="middle"><tspan x="1971" dy="0">text</tspan></text>
<polyline points="1340,1324 1346,1324 1350,1320 1350,1310 1358,1302 1752,1302 1764,1290 1764,1151 1770,1145 1841,1145" fill="none" stroke="#6d2395" stroke-width="2"   marker-end="url(#m_arrow_end)"/>
<polyline points="1340,1363 1346,1363 1350,1367 1350,1417 1362,1429 1390,1429" fill="none" stroke="#6d2395" stroke-width="2"   marker-end="url(#m_arrow_end)"/>
<polyline points="1340,1343 1390,1343" fill="none" stroke="#6d2395" stroke-width="2"   marker-end="url(#m_arrow_end)"/>
<polyline points="1610,1343 1774,1343 1784,1353 1784,1500 1796,1512 1814,1512 1861,1512" fill="none" stroke="#6d2395" stroke-width="2"   marker-end="url(#m_arrow_end)"/>
<polyline points="1610,1429 1762,1429 1774,1417 1774,1176 1786,1164 1841,1164" fill="none" stroke="#6d2395" stroke-width="2"   marker-end="url(#m_arrow_end)"/>
<polyline points="1610,1461 1752,1461 1764,1473 1764,1519 1776,1531 1814,1531 1861,1531" fill="none" stroke="#6d2395" stroke-width="2"   marker-end="url(#m_arrow_end)"/>
<polyline points="1348,1126 1841,1126" fill="none" stroke="#233d95" stroke-width="2"   marker-end="url(#m_arrow_end)"/>
<polyline points="1348,1152 1782,1152 1794,1164 1794,1417 1806,1429 1861,1429" fill="none" stroke="#233d95" stroke-width="2"   marker-end="url(#m_arrow_end)"/>
<polyline points="1348,141 1361,141 1373,153 1373,217 1385,229 1443,229" fill="none" stroke="#233d95" stroke-width="2"   marker-end="url(#m_arrow_end)"/>
<polyline points="929,141 1064,141" fill="none" stroke="#233d95" stroke-width="2"   marker-end="url(#m_arrow_end)"/>
<polyline points="929,159 1039,159 1049,169 1049,175 1055,181 1351,181 1363,193 1363,236 1375,248 1443,248" fill="none" stroke="#233d95" stroke-width="2"   marker-end="url(#m_arrow_end)"/>
<polyline points="929,362 935,362 939,366 939,1127 951,1139 1064,1139" fill="none" stroke="#233d95" stroke-width="2"   marker-end="url(#m_arrow_end)"/>
<polyline points="929,344 939,344 949,354 949,1034 961,1046 1064,1046" fill="none" stroke="#233d95" stroke-width="2"   marker-end="url(#m_arrow_end)"/>
<polyline points="929,233 997,233 1009,245 1009,482 1021,494 1080,494" fill="none" stroke="#233d95" stroke-width="2"   marker-end="url(#m_arrow_end)"/>
<polyline points="929,196 1017,196 1029,208 1029,330 1041,342 1080,342" fill="none" stroke="#233d95" stroke-width="2"   marker-end="url(#m_arrow_end)"/>
<polyline points="929,252 987,252 999,264 999,558 1011,570 1080,570" fill="none" stroke="#233d95" stroke-width="2"   marker-end="url(#m_arrow_end)"/>
<polyline points="929,178 1027,178 1039,190 1039,254 1051,266 1080,266" fill="none" stroke="#233d95" stroke-width="2"   marker-end="url(#m_arrow_end)"/>
<polyline points="929,215 1007,215 1019,227 1019,406 1031,418 1080,418" fill="none" stroke="#233d95" stroke-width="2"   marker-end="url(#m_arrow_end)"/>
<polyline points="929,270 977,270 989,282 989,704 1001,716 1080,716" fill="none" stroke="#233d95" stroke-width="2"   marker-end="url(#m_arrow_end)"/>
<polyline points="929,325 947,325 959,337 959,932 971,944 1080,944" fill="none" stroke="#233d95" stroke-width="2"   marker-end="url(#m_arrow_end)"/>
<polyline points="929,288 967,288 979,300 979,780 991,792 1080,792" fill="none" stroke="#233d95" stroke-width="2"   marker-end="url(#m_arrow_end)"/>
<polyline points="929,307 957,307 969,319 969,856 981,868 1080,868" fill="none" stroke="#233d95" stroke-width="2"   marker-end="url(#m_arrow_end)"/>
<polyline points="1332,266 1443,266" fill="none" stroke="#233d95" stroke-width="2"   marker-end="url(#m_arrow_end)"/>
<polyline points="1332,342 1351,342 1363,330 1363,297 1375,285 1443,285" fill="none" stroke="#233d95" stroke-width="2"   marker-end="url(#m_arrow_end)"/>
<polyline points="1332,418 1361,418 1373,406 1373,315 1385,303 1443,303" fill="none" stroke="#233d95" stroke-width="2"   marker-end="url(#m_arrow_end)"/>
<polyline points="1332,494 1371,494 1383,482 1383,334 1395,322 1443,322" fill="none" stroke="#233d95" stroke-width="2"   marker-end="url(#m_arrow_end)"/>
<polyline points="1332,570 1381,570 1393,558 1393,352 1405,340 1443,340" fill="none" stroke="#233d95" stroke-width="2"   marker-end="url(#m_arrow_end)"/>
<polyline points="1332,792 1401,792 1413,780 1413,389 1425,377 1443,377" fill="none" stroke="#233d95" stroke-width="2"   marker-end="url(#m_arrow_end)"/>
<polyline points="1332,868 1411,868 1423,856 1423,406 1433,396 1443,396" fill="none" stroke="#233d95" stroke-width="2"   marker-end="url(#m_arrow_end)"/>
<polyline points="1332,944 1421,944 1433,932 1433,418 1437,414 1443,414" fill="none" stroke="#233d95" stroke-width="2"   marker-end="url(#m_arrow_end)"/>
<polyline points="1332,716 1391,716 1403,704 1403,371 1415,359 1443,359" fill="none" stroke="#233d95" stroke-width="2"   marker-end="url(#m_arrow_end)"/>
<polyline points="1348,1046 1752,1046 1764,1058 1764,1095 1776,1107 1841,1107" fill="none" stroke="#233d95" stroke-width="2"   marker-end="url(#m_arrow_end)"/>
<polyline points="266,1451 561,1451 573,1439 573,36 585,24 1762,24 1774,36 1774,1076 1786,1088 1841,1088" fill="none" stroke="#692395" stroke-width="2"   marker-end="url(#m_arrow_end)"/>
<polyline points="266,1527 272,1527 276,1531 276,1558 288,1570 1814,1570 1861,1570" fill="none" stroke="#692395" stroke-width="2"   marker-end="url(#m_arrow_end)"/>
<polyline points="266,1470 569,1470 573,1466 573,1461 1390,1461" fill="none" stroke="#692395" stroke-width="2"   marker-end="url(#m_arrow_end)"/>
<polyline points="266,1489 571,1489 583,1501 583,1529 595,1541 1814,1541 1841,1541 1851,1531 1851,1453 1855,1449 1861,1449" fill="none" stroke="#692395" stroke-width="2"   marker-end="url(#m_arrow_end)"/>
<polyline points="266,1508 276,1508 286,1518 286,1524 292,1530 316,1530" fill="none" stroke="#692395" stroke-width="2"   marker-end="url(#m_arrow_end)"/>
<polyline points="536,1530 561,1530 573,1542 573,1548 579,1554 1764,1554 1764,1551 1814,1551 1851,1551 1861,1551" fill="none" stroke="#692395" stroke-width="2"   marker-end="url(#m_arrow_end)"/>
</g></svg>