<svg xmlns="http://www.w3.org/2000/svg" viewBox="0 0 696 1562" width="696" height="1562" font-family="Helvetica, Arial, sans-serif">
<rect width="100%" height="100%" fill="#ffffff"/>
<g transform="translate(-8 -8)">
<defs>
    <marker id="m_arrow_end" viewBox="0 0 10 10" refX="9" refY="5" markerWidth="8" markerHeight="8" orient="auto"><path d="M0,0 L10,5 L0,10 z" fill="#000"/></marker>
    <marker id="m_arrow_start" viewBox="0 0 10 10" refX="1" refY="5" markerWidth="8" markerHeight="8" orient="auto-start-reverse"><path d="M0,0 L10,5 L0,10 z" fill="#000"/></marker>
    <marker id="m_triangle_end" viewBox="0 0 10 10" refX="9" refY="5" markerWidth="9" markerHeight="9" orient="auto"><path d="M0,0 L10,5 L0,10 z" fill="#000"/></marker>
    <marker id="m_triangle_start" viewBox="0 0 10 10" refX="1" refY="5" markerWidth="9" markerHeight="9" orient="auto-start-reverse"><path d="M0,0 L10,5 L0,10 z" fill="#000"/></marker>
    <marker id="m_triangle_outline_end" viewBox="0 0 10 10" refX="9" refY="5" markerWidth="10" markerHeight="10" orient="auto"><path d="M0,0 L10,5 L0,10 z" fill="#fff" stroke="#000"/></marker>
    <marker id="m_triangle_outline_start" viewBox="0 0 10 10" refX="1" refY="5" markerWidth="10" markerHeight="10" orient="auto-start-reverse"><path d="M0,0 L10,5 L0,10 z" fill="#fff" stroke="#000"/></marker>
    <marker id="m_diamond_end" viewBox="0 0 12 10" refX="11" refY="5" markerWidth="10" markerHeight="8" orient="auto"><path d="M0,5 L6,0 L12,5 L6,10 z" fill="#000"/></marker>
    <marker id="m_diamond_start" viewBox="0 0 12 10" refX="1" refY="5" markerWidth="10" markerHeight="8" orient="auto-start-reverse"><path d="M0,5 L6,0 L12,5 L6,10 z" fill="#000"/></marker>
    <marker id="m_diamond_outline_end" viewBox="0 0 12 10" refX="11" refY="5" markerWidth="10" markerHeight="8" orient="auto"><path d="M0,5 L6,0 L12,5 L6,10 z" fill="#fff" stroke="#000"/></marker>
    <marker id="m_diamond_outline_start" viewBox="0 0 12 10" refX="1" refY="5" markerWidth="10" markerHeight="8" orient="auto-start-reverse"><path d="M0,5 L6,0 L12,5 L6,10 z" fill="#fff" stroke="#000"/></marker>
  </defs>
<rect x="24" y="527" width="264" height="424" rx="6" ry="6" fill="#f8e7f2" stroke="#952369" stroke-width="2"/>
<rect x="46" y="535" width="120" height="38" rx="6" ry="6" fill="#edc9df" stroke="#952369" stroke-width="2"/>
<text x="60" y="562.25" fill="#952369" font-size="22" text-anchor="start"><tspan x="60" dy="0">engine</tspan></text>
<rect x="46" y="593" width="220" height="330" rx="6" ry="6" fill="#ffffff" stroke="#952369" stroke-width="2"/>
<text x="156" y="623" fill="#952369" font-size="18" text-anchor="middle"><tspan x="156" dy="0">runEngine</tspan></text>
<rect x="388" y="24" width="300" height="870" rx="6" ry="6" fill="#f8e8e7" stroke="#952723" stroke-width="2"/>
<rect x="410" y="32" width="233.70000000000002" height="38" rx="6" ry="6" fill="#edcbc9" stroke="#952723" stroke-width="2"/>
<text x="424" y="59.25" fill="#952723" font-size="22" text-anchor="start"><tspan x="424" dy="0">component plugins</tspan></text>
<rect x="410" y="170" width="256" height="56" rx="6" ry="6" fill="#ffffff" stroke="#952723" stroke-width="2"/>
<text x="538" y="200" fill="#952723" font-size="18" text-anchor="middle"><tspan x="538" dy="0">component.title</tspan></text>
<rect x="410" y="410" width="256" height="56" rx="6" ry="6" fill="#ffffff" stroke="#952723" stroke-width="2"/>
<text x="538" y="440" fill="#952723" font-size="18" text-anchor="middle"><tspan x="538" dy="0">component.close</tspan></text>
<rect x="410" y="90" width="256" height="56" rx="6" ry="6" fill="#ffffff" stroke="#952723" stroke-width="2"/>
<text x="538" y="120" fill="#952723" font-size="18" text-anchor="middle"><tspan x="538" dy="0">component.noteBlock</tspan></text>
<rect x="410" y="650" width="256" height="56" rx="6" ry="6" fill="#ffffff" stroke="#952723" stroke-width="2"/>
<text x="538" y="680" fill="#952723" font-size="18" text-anchor="middle"><tspan x="538" dy="0">component.noteOf</tspan></text>
<rect x="410" y="730" width="256" height="56" rx="6" ry="6" fill="#ffffff" stroke="#952723" stroke-width="2"/>
<text x="538" y="760" fill="#952723" font-size="18" text-anchor="middle"><tspan x="538" dy="0">component.noteFree</tspan></text>
<rect x="410" y="250" width="256" height="56" rx="6" ry="6" fill="#ffffff" stroke="#952723" stroke-width="2"/>
<text x="538" y="280" fill="#952723" font-size="18" text-anchor="middle"><tspan x="538" dy="0">component.shapeKeyword</tspan></text>
<rect x="410" y="330" width="256" height="56" rx="6" ry="6" fill="#ffffff" stroke="#952723" stroke-width="2"/>
<text x="538" y="360" fill="#952723" font-size="18" text-anchor="middle"><tspan x="538" dy="0">component.container</tspan></text>
<rect x="410" y="570" width="256" height="56" rx="6" ry="6" fill="#ffffff" stroke="#952723" stroke-width="2"/>
<text x="538" y="600" fill="#952723" font-size="18" text-anchor="middle"><tspan x="538" dy="0">component.bracketBox</tspan></text>
<rect x="410" y="810" width="256" height="56" rx="6" ry="6" fill="#ffffff" stroke="#952723" stroke-width="2"/>
<text x="538" y="840" fill="#952723" font-size="18" text-anchor="middle"><tspan x="538" dy="0">component.usecaseParens</tspan></text>
<rect x="410" y="490" width="256" height="56" rx="6" ry="6" fill="#ffffff" stroke="#952723" stroke-width="2"/>
<text x="538" y="520" fill="#952723" font-size="18" text-anchor="middle"><tspan x="538" dy="0">component.connection</tspan></text>
<rect x="388" y="924" width="290" height="630" rx="6" ry="6" fill="#f8e8e7" stroke="#952a23" stroke-width="2"/>
<rect x="410" y="932" width="221.60000000000002" height="38" rx="6" ry="6" fill="#edccc9" stroke="#952a23" stroke-width="2"/>
<text x="424" y="959.25" fill="#952a23" font-size="22" text-anchor="start"><tspan x="424" dy="0">sequence plugins</tspan></text>
<rect x="410" y="1070" width="246" height="56" rx="6" ry="6" fill="#ffffff" stroke="#952a23" stroke-width="2"/>
<text x="533" y="1100" fill="#952a23" font-size="18" text-anchor="middle"><tspan x="533" dy="0">sequence.title</tspan></text>
<rect x="410" y="1310" width="246" height="56" rx="6" ry="6" fill="#ffffff" stroke="#952a23" stroke-width="2"/>
<text x="533" y="1340" fill="#952a23" font-size="18" text-anchor="middle"><tspan x="533" dy="0">sequence.participant</tspan></text>
<rect x="410" y="990" width="246" height="56" rx="6" ry="6" fill="#ffffff" stroke="#952a23" stroke-width="2"/>
<text x="533" y="1020" fill="#952a23" font-size="18" text-anchor="middle"><tspan x="533" dy="0">sequence.noteSideBlock</tspan></text>
<rect x="410" y="1390" width="246" height="56" rx="6" ry="6" fill="#ffffff" stroke="#952a23" stroke-width="2"/>
<text x="533" y="1420" fill="#952a23" font-size="18" text-anchor="middle"><tspan x="533" dy="0">sequence.noteOverBlock</tspan></text>
<rect x="410" y="1470" width="246" height="56" rx="6" ry="6" fill="#ffffff" stroke="#952a23" stroke-width="2"/>
<text x="533" y="1500" fill="#952a23" font-size="18" text-anchor="middle"><tspan x="533" dy="0">sequence.noteSide</tspan></text>
<rect x="410" y="1150" width="246" height="56" rx="6" ry="6" fill="#ffffff" stroke="#952a23" stroke-width="2"/>
<text x="533" y="1180" fill="#952a23" font-size="18" text-anchor="middle"><tspan x="533" dy="0">sequence.noteOver</tspan></text>
<rect x="410" y="1230" width="246" height="56" rx="6" ry="6" fill="#ffffff" stroke="#952a23" stroke-width="2"/>
<text x="533" y="1260" fill="#952a23" font-size="18" text-anchor="middle"><tspan x="533" dy="0">sequence.message</tspan></text>
<polyline points="266,630 293,630 303,630 313,620 313,210 325,198 410,198" fill="none" stroke="#952369" stroke-width="2"   marker-end="url(#m_arrow_end)"/>
<polyline points="266,685 293,685 331,685 343,673 343,450 355,438 410,438" fill="none" stroke="#952369" stroke-width="2"   marker-end="url(#m_arrow_end)"/>
<polyline points="266,611 293,611 299,611 303,607 303,130 315,118 410,118" fill="none" stroke="#952369" stroke-width="2"   marker-end="url(#m_arrow_end)"/>
<polyline points="266,740 293,740 361,740 373,728 373,690 385,678 410,678" fill="none" stroke="#952369" stroke-width="2"   marker-end="url(#m_arrow_end)"/>
<polyline points="266,758 410,758" fill="none" stroke="#952369" stroke-width="2"   marker-end="url(#m_arrow_end)"/>
<polyline points="266,648 311,648 323,636 323,290 335,278 410,278" fill="none" stroke="#952369" stroke-width="2"   marker-end="url(#m_arrow_end)"/>
<polyline points="266,666 293,666 321,666 333,654 333,370 345,358 410,358" fill="none" stroke="#952369" stroke-width="2"   marker-end="url(#m_arrow_end)"/>
<polyline points="266,721 293,721 351,721 363,709 363,610 375,598 410,598" fill="none" stroke="#952369" stroke-width="2"   marker-end="url(#m_arrow_end)"/>
<polyline points="266,776 293,776 361,776 373,788 373,826 385,838 410,838" fill="none" stroke="#952369" stroke-width="2"   marker-end="url(#m_arrow_end)"/>
<polyline points="266,703 341,703 353,691 353,530 365,518 410,518" fill="none" stroke="#952369" stroke-width="2"   marker-end="url(#m_arrow_end)"/>
<polyline points="266,813 341,813 353,825 353,1086 365,1098 410,1098" fill="none" stroke="#952369" stroke-width="2"   marker-end="url(#m_arrow_end)"/>
<polyline points="266,868 311,868 323,880 323,1326 335,1338 410,1338" fill="none" stroke="#952369" stroke-width="2"   marker-end="url(#m_arrow_end)"/>
<polyline points="266,795 293,795 351,795 363,807 363,1006 375,1018 410,1018" fill="none" stroke="#952369" stroke-width="2"   marker-end="url(#m_arrow_end)"/>
<polyline points="266,886 293,886 303,886 313,896 313,1406 325,1418 410,1418" fill="none" stroke="#952369" stroke-width="2"   marker-end="url(#m_arrow_end)"/>
<polyline points="266,905 293,905 299,905 303,909 303,1486 315,1498 410,1498" fill="none" stroke="#952369" stroke-width="2"   marker-end="url(#m_arrow_end)"/>
<polyline points="266,831 293,831 331,831 343,843 343,1166 355,1178 410,1178" fill="none" stroke="#952369" stroke-width="2"   marker-end="url(#m_arrow_end)"/>
<polyline points="266,850 293,850 321,850 333,862 333,1246 345,1258 410,1258" fill="none" stroke="#952369" stroke-width="2"   marker-end="url(#m_arrow_end)"/>
</g></svg>