<svg xmlns="http://www.w3.org/2000/svg" viewBox="0 0 1208 866" width="1208" height="866" font-family="Helvetica, Arial, sans-serif">
<rect width="100%" height="100%" fill="#ffffff"/>
<g transform="translate(-4 0)">
<defs>
    <marker id="m_arrow_end" viewBox="0 0 10 10" refX="9" refY="5" markerWidth="8" markerHeight="8" orient="auto"><path d="M0,0 L10,5 L0,10 z" fill="#000"/></marker>
    <marker id="m_arrow_start" viewBox="0 0 10 10" refX="1" refY="5" markerWidth="8" markerHeight="8" orient="auto-start-reverse"><path d="M0,0 L10,5 L0,10 z" fill="#000"/></marker>
    <marker id="m_triangle_end" viewBox="0 0 10 10" refX="9" refY="5" markerWidth="9" markerHeight="9" orient="auto"><path d="M0,0 L10,5 L0,10 z" fill="#000"/></marker>
    <marker id="m_triangle_start" viewBox="0 0 10 10" refX="1" refY="5" markerWidth="9" markerHeight="9" orient="auto-start-reverse"><path d="M0,0 L10,5 L0,10 z" fill="#000"/></marker>
    <marker id="m_triangle_outline_end" viewBox="0 0 10 10" refX="9" refY="5" markerWidth="10" markerHeight="10" orient="auto"><path d="M0,0 L10,5 L0,10 z" fill="#fff" stroke="#000"/></marker>
    <marker id="m_triangle_outline_start" viewBox="0 0 10 10" refX="1" refY="5" markerWidth="10" markerHeight="10" orient="auto-start-reverse"><path d="M0,0 L10,5 L0,10 z" fill="#fff" stroke="#000"/></marker>
    <marker id="m_diamond_end" viewBox="0 0 12 10" refX="11" refY="5" markerWidth="10" markerHeight="8" orient="auto"><path d="M0,5 L6,0 L12,5 L6,10 z" fill="#000"/></marker>
    <marker id="m_diamond_start" viewBox="0 0 12 10" refX="1" refY="5" markerWidth="10" markerHeight="8" orient="auto-start-reverse"><path d="M0,5 L6,0 L12,5 L6,10 z" fill="#000"/></marker>
    <marker id="m_diamond_outline_end" viewBox="0 0 12 10" refX="11" refY="5" markerWidth="10" markerHeight="8" orient="auto"><path d="M0,5 L6,0 L12,5 L6,10 z" fill="#fff" stroke="#000"/></marker>
    <marker id="m_diamond_outline_start" viewBox="0 0 12 10" refX="1" refY="5" markerWidth="10" markerHeight="8" orient="auto-start-reverse"><path d="M0,5 L6,0 L12,5 L6,10 z" fill="#fff" stroke="#000"/></marker>
  </defs>
<text x="608" y="38" fill="#1f2933" font-size="22" text-anchor="middle"><tspan x="608" dy="0">renderPlantUml — call flow</tspan></text>
<polyline points="95,140 95,850" fill="none" stroke="#888" stroke-width="1" stroke-dasharray="6 4"  />
<polyline points="265,140 265,850" fill="none" stroke="#888" stroke-width="1" stroke-dasharray="6 4"  />
<polyline points="435,140 435,850" fill="none" stroke="#888" stroke-width="1" stroke-dasharray="6 4"  />
<polyline points="605,140 605,850" fill="none" stroke="#888" stroke-width="1" stroke-dasharray="6 4"  />
<polyline points="775,140 775,850" fill="none" stroke="#888" stroke-width="1" stroke-dasharray="6 4"  />
<polyline points="945,140 945,850" fill="none" stroke="#888" stroke-width="1" stroke-dasharray="6 4"  />
<polyline points="1118,140 1118,850" fill="none" stroke="#888" stroke-width="1" stroke-dasharray="6 4"  />
<ellipse cx="95" cy="75" rx="11" ry="11" fill="#ffffff" stroke="#1f2933" stroke-width="2"/>
<polyline points="95,86 95,108" fill="none" stroke="#1f2933" stroke-width="2"   />
<polyline points="83,92 107,92" fill="none" stroke="#1f2933" stroke-width="2"   />
<polyline points="95,108 85,120" fill="none" stroke="#1f2933" stroke-width="2"   />
<polyline points="95,108 105,120" fill="none" stroke="#1f2933" stroke-width="2"   />
<text x="95" y="144" fill="#1f2933" font-size="18" text-anchor="middle"><tspan x="95" dy="0">Caller</tspan></text>
<rect x="210" y="60" width="110" height="50" rx="6" ry="6" fill="#f5f7fa" stroke="#1f2933" stroke-width="2"/>
<text x="265" y="91.75" fill="#1f2933" font-size="18" text-anchor="middle"><tspan x="265" dy="0">index</tspan></text>
<rect x="210" y="800" width="110" height="50" rx="6" ry="6" fill="#f5f7fa" stroke="#1f2933" stroke-width="2"/>
<text x="265" y="831.75" fill="#1f2933" font-size="18" text-anchor="middle"><tspan x="265" dy="0">index</tspan></text>
<rect x="380" y="60" width="110" height="50" rx="6" ry="6" fill="#f5f7fa" stroke="#1f2933" stroke-width="2"/>
<text x="435" y="91.75" fill="#1f2933" font-size="18" text-anchor="middle"><tspan x="435" dy="0">parser</tspan></text>
<rect x="380" y="800" width="110" height="50" rx="6" ry="6" fill="#f5f7fa" stroke="#1f2933" stroke-width="2"/>
<text x="435" y="831.75" fill="#1f2933" font-size="18" text-anchor="middle"><tspan x="435" dy="0">parser</tspan></text>
<rect x="550" y="60" width="110" height="50" rx="6" ry="6" fill="#f5f7fa" stroke="#1f2933" stroke-width="2"/>
<text x="605" y="91.75" fill="#1f2933" font-size="18" text-anchor="middle"><tspan x="605" dy="0">engine</tspan></text>
<rect x="550" y="800" width="110" height="50" rx="6" ry="6" fill="#f5f7fa" stroke="#1f2933" stroke-width="2"/>
<text x="605" y="831.75" fill="#1f2933" font-size="18" text-anchor="middle"><tspan x="605" dy="0">engine</tspan></text>
<rect x="720" y="60" width="110" height="50" rx="6" ry="6" fill="#f5f7fa" stroke="#1f2933" stroke-width="2"/>
<text x="775" y="91.75" fill="#1f2933" font-size="18" text-anchor="middle"><tspan x="775" dy="0">plugin</tspan></text>
<rect x="720" y="800" width="110" height="50" rx="6" ry="6" fill="#f5f7fa" stroke="#1f2933" stroke-width="2"/>
<text x="775" y="831.75" fill="#1f2933" font-size="18" text-anchor="middle"><tspan x="775" dy="0">plugin</tspan></text>
<rect x="890" y="60" width="110" height="50" rx="6" ry="6" fill="#f5f7fa" stroke="#1f2933" stroke-width="2"/>
<text x="945" y="91.75" fill="#1f2933" font-size="18" text-anchor="middle"><tspan x="945" dy="0">layout</tspan></text>
<rect x="890" y="800" width="110" height="50" rx="6" ry="6" fill="#f5f7fa" stroke="#1f2933" stroke-width="2"/>
<text x="945" y="831.75" fill="#1f2933" font-size="18" text-anchor="middle"><tspan x="945" dy="0">layout</tspan></text>
<rect x="1060" y="60" width="116" height="50" rx="6" ry="6" fill="#f5f7fa" stroke="#1f2933" stroke-width="2"/>
<text x="1118" y="91.75" fill="#1f2933" font-size="18" text-anchor="middle"><tspan x="1118" dy="0">renderer</tspan></text>
<rect x="1060" y="800" width="116" height="50" rx="6" ry="6" fill="#f5f7fa" stroke="#1f2933" stroke-width="2"/>
<text x="1118" y="831.75" fill="#1f2933" font-size="18" text-anchor="middle"><tspan x="1118" dy="0">renderer</tspan></text>
<polyline points="95,190 265,190" fill="none" stroke="#1f2933" stroke-width="2"   marker-end="url(#m_triangle_end)"/>
<text x="180" y="184.75" fill="#222" font-size="13" text-anchor="middle"><tspan x="180" dy="0">renderPlantUml(text, opts)</tspan></text>
<polyline points="265,240 435,240" fill="none" stroke="#1f2933" stroke-width="2"   marker-end="url(#m_triangle_end)"/>
<text x="350" y="234.75" fill="#222" font-size="13" text-anchor="middle"><tspan x="350" dy="0">parsePlantUml(text)</tspan></text>
<polyline points="435,290 605,290" fill="none" stroke="#1f2933" stroke-width="2"   marker-end="url(#m_triangle_end)"/>
<text x="520" y="284.75" fill="#222" font-size="13" text-anchor="middle"><tspan x="520" dy="0">runEngine({ lines, plugins, ctx })</tspan></text>
<polyline points="605,340 775,340" fill="none" stroke="#1f2933" stroke-width="2"   marker-end="url(#m_triangle_end)"/>
<text x="690" y="334.75" fill="#222" font-size="13" text-anchor="middle"><tspan x="690" dy="0">tryLine / tryStart per line</tspan></text>
<polyline points="775,390 605,390" fill="none" stroke="#1f2933" stroke-width="2" stroke-dasharray="6 4"  marker-end="url(#m_triangle_end)"/>
<text x="690" y="384.75" fill="#222" font-size="13" text-anchor="middle"><tspan x="690" dy="0">consume + mutate ctx</tspan></text>
<polyline points="605,440 435,440" fill="none" stroke="#1f2933" stroke-width="2" stroke-dasharray="6 4"  marker-end="url(#m_triangle_end)"/>
<text x="520" y="434.75" fill="#222" font-size="13" text-anchor="middle"><tspan x="520" dy="0">Diagram | SequenceDiagram</tspan></text>
<polyline points="435,490 265,490" fill="none" stroke="#1f2933" stroke-width="2" stroke-dasharray="6 4"  marker-end="url(#m_triangle_end)"/>
<text x="350" y="484.75" fill="#222" font-size="13" text-anchor="middle"><tspan x="350" dy="0">model</tspan></text>
<polyline points="265,540 945,540" fill="none" stroke="#1f2933" stroke-width="2"   marker-end="url(#m_triangle_end)"/>
<text x="605" y="534.75" fill="#222" font-size="13" text-anchor="middle"><tspan x="605" dy="0">layoutDiagram(model)</tspan></text>
<polyline points="945,590 265,590" fill="none" stroke="#1f2933" stroke-width="2" stroke-dasharray="6 4"  marker-end="url(#m_triangle_end)"/>
<text x="605" y="584.75" fill="#222" font-size="13" text-anchor="middle"><tspan x="605" dy="0">positions + edge paths</tspan></text>
<polyline points="265,640 1118,640" fill="none" stroke="#1f2933" stroke-width="2"   marker-end="url(#m_triangle_end)"/>
<text x="691.5" y="634.75" fill="#222" font-size="13" text-anchor="middle"><tspan x="691.5" dy="0">exportDiagram(model)</tspan></text>
<polyline points="1118,690 265,690" fill="none" stroke="#1f2933" stroke-width="2" stroke-dasharray="6 4"  marker-end="url(#m_triangle_end)"/>
<text x="691.5" y="684.75" fill="#222" font-size="13" text-anchor="middle"><tspan x="691.5" dy="0">Excalidraw JSON</tspan></text>
<polyline points="265,740 95,740" fill="none" stroke="#1f2933" stroke-width="2" stroke-dasharray="6 4"  marker-end="url(#m_triangle_end)"/>
<text x="180" y="734.75" fill="#222" font-size="13" text-anchor="middle"><tspan x="180" dy="0">Excalidraw JSON</tspan></text>
</g></svg>